HIERARCHY
ROOT Hips
{
	OFFSET 0.000000 88.474243 0.000000
	CHANNELS 6 Xposition Yposition Zposition Zrotation Yrotation Xrotation 
	JOINT Hips_Spine
	{
		OFFSET 0.000000 0.000000 0.000000
		CHANNELS 3 Zrotation Yrotation Xrotation
		JOINT Spine
		{
			OFFSET 0.005100 8.711998 -0.691000
			CHANNELS 3 Zrotation Yrotation Xrotation
			JOINT Spine1
			{
				OFFSET -0.009200 8.660301 -1.275000
				CHANNELS 3 Zrotation Yrotation Xrotation
				JOINT Spine2
				{
					OFFSET 0.006300 9.852501 -1.857000
					CHANNELS 3 Zrotation Yrotation Xrotation
					JOINT Spine2_Neck
					{
						OFFSET 0.000000 0.000000 0.000000
						CHANNELS 3 Zrotation Yrotation Xrotation
						JOINT Neck
						{
							OFFSET 0.016300 11.420799 -0.263300
							CHANNELS 3 Zrotation Yrotation Xrotation
							End Site #name: Head
							{
								OFFSET -0.019200 9.262405 2.362500
							}
						}
					}
					JOINT Spine2_LeftShoulder
					{
						OFFSET 0.000000 0.000000 0.000000
						CHANNELS 3 Zrotation Yrotation Xrotation
						JOINT LeftShoulder
						{
							OFFSET 5.616900 6.732201 -0.345700
							CHANNELS 3 Zrotation Yrotation Xrotation
							JOINT LeftArm
							{
								OFFSET 10.664888 -0.183372 -2.440700
								CHANNELS 3 Zrotation Yrotation Xrotation
								JOINT LeftForeArm
								{
									OFFSET 27.459126 0.000000 0.000000
									CHANNELS 3 Zrotation Yrotation Xrotation
									End Site #name: LeftHand
									{
										OFFSET 21.306858 0.000000 0.000000
									}
								}
							}
						}
					}
					JOINT Spine2_RightShoulder
					{
						OFFSET 0.000000 0.000000 0.000000
						CHANNELS 3 Zrotation Yrotation Xrotation
						JOINT RightShoulder
						{
							OFFSET -5.580300 6.737503 -0.344400
							CHANNELS 3 Zrotation Yrotation Xrotation
							JOINT RightArm
							{
								OFFSET -10.679335 -0.188484 -2.383900
								CHANNELS 3 Zrotation Yrotation Xrotation
								JOINT RightForeArm
								{
									OFFSET -27.503529 0.000000 0.000000
									CHANNELS 3 Zrotation Yrotation Xrotation
									End Site #name: RightHand
									{
										OFFSET -21.306808 0.000000 0.000000
									}
								}
							}
						}
					}
				}
			}
		}
	}
	JOINT Hips_LeftUpLeg
	{
		OFFSET 0.000000 0.000000 0.000000
		CHANNELS 3 Zrotation Yrotation Xrotation
		JOINT LeftUpLeg
		{
			OFFSET 6.857700 -6.739601 0.312100
			CHANNELS 3 Zrotation Yrotation Xrotation
			JOINT LeftLeg
			{
				OFFSET -0.367590 -34.731552 -4.572400
				CHANNELS 3 Zrotation Yrotation Xrotation
				End Site #name: LeftFoot
				{
					OFFSET 0.367590 -34.656704 -6.067400
				}
			}
		}
	}
	JOINT Hips_RightUpLeg
	{
		OFFSET 0.000000 0.000000 0.000000
		CHANNELS 3 Zrotation Yrotation Xrotation
		JOINT RightUpLeg
		{
			OFFSET -6.876100 -6.733299 0.301000
			CHANNELS 3 Zrotation Yrotation Xrotation
			JOINT RightLeg
			{
				OFFSET 0.347353 -34.795158 -4.515900
				CHANNELS 3 Zrotation Yrotation Xrotation
				End Site #name: RightFoot
				{
					OFFSET -0.347353 -34.589367 -6.070300
				}
			}
		}
	}
}
MOTION
Frames: 16
Frame Time: 0.041667
-1.089555 14.967896 -12.740467 1.934639 15.392241 41.575677 -0.000000 0.000000 0.000000 2.386316 4.874046 52.877213 1.012157 0.677798 7.983776 0.000000 0.000000 0.000000 -1.233006 -4.179488 5.697677 6.386191 -1.799346 11.181857 -0.830704 -4.047469 12.852770 -18.580124 -27.655928 5.239795 -18.071264 -36.809123 -41.245447 13.174998 -53.689383 -12.392952 0.656534 -2.318073 9.120992 8.633519 32.113835 2.409567 24.044266 39.544416 -39.803262 -3.527166 51.492076 -8.183559 0.000000 -0.000000 0.000000 4.786571 2.053022 -61.356614 5.122161 -3.926628 93.148585 0.000000 -0.000000 0.000000 8.432933 14.525827 -64.392929 -2.694995 -0.717147 107.086646 
-1.548217 14.898780 -12.687239 -3.584695 16.881155 40.376201 0.000000 0.000000 0.000000 2.843954 5.820318 53.787785 0.998439 0.737289 8.521702 0.000000 0.000000 0.000000 -1.500880 -3.346494 6.761047 6.210048 0.530139 11.765389 -1.046090 -4.027656 13.417008 -18.539481 -25.594973 5.214829 -18.988552 -37.252210 -43.986360 11.604939 -53.665056 -10.120487 0.407336 -2.287632 8.830270 8.888597 30.744960 2.370276 18.898695 44.540247 -45.964835 -4.687010 54.383750 -8.595452 0.000000 -0.000000 0.000000 3.483801 3.068488 -65.734913 5.536458 -3.979309 91.984494 0.000000 -0.000000 0.000000 9.957118 15.541907 -60.040953 -4.103318 -0.851582 107.792037 
-1.775971 14.474648 -12.535947 -9.113778 18.524582 38.280748 0.000000 0.000000 0.000000 3.110144 6.613886 54.636202 0.962536 0.734039 9.044728 0.000000 0.000000 0.000000 -1.773682 -2.570554 7.798758 5.811144 2.492648 12.377084 -1.283120 -3.957972 13.915972 -18.616296 -23.451777 5.116117 -20.295145 -37.944101 -46.446520 10.085458 -54.667564 -7.916476 0.179792 -2.025162 8.642015 7.676149 29.490044 1.609800 13.538289 48.226020 -51.221208 -5.516492 57.982819 -7.982035 0.000000 -0.000000 0.000000 2.403463 4.962503 -70.397233 5.891798 -3.869366 90.818912 0.000000 -0.000000 0.000000 11.123487 15.260019 -55.280904 -5.117349 -0.858609 108.779895 
-1.867974 13.773071 -12.331606 -15.233998 20.103660 34.905162 0.000000 0.000000 0.000000 3.265064 7.153037 55.613976 0.935903 0.662392 9.613984 0.000000 0.000000 0.000000 -2.103030 -1.900368 8.781890 5.365818 4.127058 13.181297 -1.559879 -3.810079 14.459774 -18.893846 -21.332440 5.055537 -22.540440 -38.327712 -47.521176 8.406457 -56.405677 -5.557268 -0.018275 -1.543145 8.559597 6.722861 29.528739 0.830049 7.339376 50.987931 -56.300391 -6.205408 62.420687 -6.947574 0.000000 0.000000 0.000000 1.250966 7.226490 -75.607991 5.712708 -3.726585 90.364538 -0.000000 -0.000000 0.000000 11.302394 13.465461 -50.008080 -5.859891 -0.694898 108.891668 
-1.916436 12.822695 -12.084846 -22.888616 21.802770 29.479316 0.000000 0.000000 0.000000 3.293669 7.466793 56.663276 0.849357 0.565515 10.154876 0.000000 0.000000 0.000000 -2.492351 -1.338414 9.726783 4.949049 5.431984 14.149081 -1.881359 -3.590132 14.970143 -18.900098 -19.219939 4.898119 -24.887459 -38.378318 -48.649918 6.500764 -58.948894 -3.022960 -0.187026 -0.834371 8.606613 6.081649 30.712793 0.298921 -0.974099 53.224344 -63.357327 -7.094653 67.368063 -6.639798 0.000000 0.000000 -0.000000 -0.067399 8.791004 -80.215034 5.309674 -3.427127 89.543165 -0.000000 -0.000000 0.000000 9.589695 10.871451 -45.540847 -6.471075 -0.483357 108.361300 
-1.947261 11.648408 -11.716999 -29.705068 23.359815 22.794020 0.000000 0.000000 0.000000 3.219393 7.660908 57.662361 0.735850 0.422006 10.404370 0.000000 0.000000 0.000000 -2.918533 -0.701861 10.069138 4.593804 6.899549 14.484394 -2.179745 -3.274603 15.247985 -18.279027 -17.321849 4.465012 -27.255910 -37.597033 -50.394914 4.613710 -61.559187 -0.729098 -0.359434 -0.089131 8.773180 5.630257 32.110286 -0.192281 -11.164252 53.363415 -74.078773 -8.663686 72.027709 -7.595633 0.000000 0.000000 -0.000000 -1.313146 9.596364 -83.294501 4.807260 -3.248144 88.927361 -0.000000 -0.000000 0.000000 6.549635 8.016860 -41.555078 -6.880551 -0.266646 107.256763 
-1.974084 10.337040 -11.166288 -35.722155 24.363551 14.644175 -0.000000 0.000000 0.000000 3.037207 7.698764 58.431112 0.613731 0.261245 10.477630 0.000000 0.000000 0.000000 -3.374702 0.010516 9.756600 4.124303 8.581562 14.113222 -2.447303 -2.859170 15.291171 -17.548458 -15.617381 3.905732 -29.866642 -35.953382 -52.225838 2.759403 -63.196283 1.233617 -0.580557 0.703432 9.029481 5.199295 33.843060 -0.355691 -21.612690 53.232967 -83.949543 -12.174815 77.032600 -10.943796 0.000000 0.000000 -0.000000 -2.080334 9.593683 -83.591982 4.254155 -3.131965 87.577203 -0.000000 -0.000000 0.000000 3.040549 5.562787 -38.192935 -7.282096 0.018280 105.704903 
-2.039811 8.948787 -10.391840 -40.731359 23.822383 5.690907 -0.000000 0.000000 0.000000 2.664353 7.741817 58.778422 0.472391 0.093867 10.407077 0.000000 0.000000 0.000000 -3.822601 0.890794 8.988938 3.313932 10.745509 13.202654 -2.689286 -2.339735 15.154992 -17.018935 -13.623590 3.196559 -33.382799 -33.423626 -53.539990 1.175462 -63.378417 2.567450 -0.789480 1.511651 9.339126 5.023506 36.051444 -0.093851 -30.584420 52.839092 -91.747822 -19.933489 81.809699 -18.500104 0.000000 0.000000 -0.000000 -2.740732 8.779725 -81.218324 3.633068 -2.780989 85.770577 -0.000000 -0.000000 0.000000 -0.811170 3.879057 -36.929417 -7.991931 0.118606 103.892178 
-2.216226 7.510082 -9.393125 -44.448935 21.254319 -3.566428 -0.000000 0.000000 0.000000 2.161605 7.664687 58.739183 0.321000 -0.082369 10.159923 0.000000 0.000000 0.000000 -4.272800 1.937308 7.750306 2.536650 13.282836 11.537444 -2.897383 -1.729578 14.801782 -17.028175 -10.997957 2.312852 -37.702247 -30.063790 -54.657308 0.133311 -61.768903 2.998056 -0.983551 2.354404 9.713703 5.274116 38.445161 0.508889 -37.673886 52.308501 -96.999434 -42.941640 85.770517 -41.181568 0.000000 0.000000 -0.000000 -3.583517 7.288043 -76.768949 3.007368 -2.871830 84.596015 -0.000000 -0.000000 0.000000 -3.888686 3.427249 -35.314558 -8.636826 0.137995 101.776677 
-2.505790 6.059096 -8.292121 -47.128717 18.415819 -12.465408 -0.000000 0.000000 0.000000 1.568700 7.432320 58.644838 0.181812 -0.252992 9.981535 0.000000 0.000000 0.000000 -4.662646 2.689830 6.796576 1.833975 15.108597 9.922457 -3.027188 -1.085834 14.519273 -16.887897 -8.703061 1.546928 -41.742720 -26.607595 -55.497639 -0.383576 -59.112534 2.914059 -1.169761 3.048537 10.061605 6.076984 40.388738 1.409886 -41.325019 50.860991 -99.200809 -95.750098 86.996813 -93.680540 0.000000 0.000000 -0.000000 -4.662904 5.413520 -71.088852 2.204647 -3.030447 83.310460 -0.000000 -0.000000 0.000000 -5.482489 3.065636 -33.300896 -8.931142 0.048190 100.256687 
-2.867254 4.609593 -7.074225 -48.841449 15.082264 -20.955721 -0.000000 0.000000 0.000000 0.862676 7.139250 58.291141 0.019939 -0.389245 9.748990 0.000000 0.000000 0.000000 -4.985463 3.158055 6.073260 1.462846 16.248276 8.433313 -3.089573 -0.411500 14.266114 -16.636123 -6.765559 0.939381 -45.334041 -23.132512 -56.180280 -0.458888 -55.487034 2.416979 -1.353004 3.609909 10.351400 6.969257 41.773051 2.137295 -42.360157 49.621660 -99.026363 -132.224159 85.776917 -129.839679 0.000000 0.000000 -0.000000 -6.181213 2.976674 -66.791048 2.149491 -3.631169 84.176550 -0.000000 -0.000000 0.000000 -6.131176 1.999283 -32.190038 -8.169967 0.183795 100.348755 
-3.266913 3.022648 -5.774741 -49.731706 12.805412 -29.188672 -0.000000 0.000000 0.000000 0.091111 6.688407 57.872630 -0.189381 -0.508533 9.335180 0.000000 0.000000 0.000000 -5.273581 3.316850 5.448073 1.392211 16.689738 6.843709 -3.121271 0.251370 13.986725 -16.087160 -5.507367 0.560116 -48.657048 -19.730521 -56.693638 -0.223442 -50.949394 1.610376 -1.539026 4.012519 10.600793 7.717003 42.423897 2.751507 -41.249270 49.036230 -96.743986 -143.788798 84.437109 -141.086550 0.000000 0.000000 -0.000000 -8.209472 0.870916 -64.814558 2.819205 -4.186973 85.931008 -0.000000 -0.000000 0.000000 -6.472991 0.176257 -32.186231 -6.929184 0.532809 102.167634 
-3.663353 1.120860 -4.519953 -49.670548 11.817853 -37.197627 -0.000000 0.000000 0.000000 -0.725879 6.065501 57.502529 -0.453867 -0.628661 8.752479 0.000000 0.000000 0.000000 -5.504432 3.153811 4.890847 1.533807 16.417639 5.203820 -3.120179 1.004738 13.587714 -15.309240 -4.655910 0.336270 -51.535532 -16.519826 -57.306678 0.192727 -45.701558 0.697933 -1.765930 4.269656 10.748541 7.864231 41.749953 3.167508 -37.274832 48.586509 -91.964371 -145.564071 83.951659 -142.530752 0.000000 0.000000 -0.000000 -9.820287 0.356076 -63.135114 3.394810 -4.158545 87.437497 -0.000000 -0.000000 0.000000 -6.366899 -0.993368 -32.797918 -5.431706 0.887978 105.066288 
-3.975926 -1.334084 -3.314960 -47.693842 10.874219 -43.839991 -0.000000 0.000000 0.000000 -1.519535 5.369821 57.022322 -0.748130 -0.697659 7.983294 0.000000 0.000000 0.000000 -5.649703 2.842766 4.313286 1.240387 15.551505 3.585547 -3.127152 1.693289 13.221631 -14.529421 -4.279718 0.356351 -53.757627 -13.800285 -57.485572 0.562172 -40.578333 0.078517 -1.944936 4.370976 10.679954 8.090036 40.320953 3.412090 -30.784243 48.832637 -84.627203 -143.404933 83.940701 -140.222944 0.000000 0.000000 -0.000000 -10.981324 -0.237811 -63.004681 3.731700 -3.917259 88.761283 -0.000000 -0.000000 0.000000 -6.259390 -2.177520 -34.405281 -4.090142 1.340423 107.240210 
-4.116311 -4.309834 -2.114195 -43.725924 9.695991 -49.308125 -0.000000 0.000000 0.000000 -2.180664 4.556551 56.898093 -1.015913 -0.775433 7.078526 0.000000 0.000000 0.000000 -5.695123 2.358137 3.777217 0.753106 14.317153 2.300846 -3.137961 2.244474 12.959001 -13.932265 -4.170213 0.566436 -55.173061 -11.522862 -57.287082 0.924360 -35.999853 -0.247680 -2.069600 4.275049 10.414425 8.577872 38.399689 3.381736 -22.154564 48.124390 -75.991623 -134.349089 84.543890 -131.252723 0.000000 0.000000 -0.000000 -11.665406 -1.008761 -65.123339 3.298594 -3.091949 89.841664 -0.000000 -0.000000 0.000000 -5.930812 -2.902742 -36.988683 -3.161228 1.783957 108.653377 
-3.978738 -7.875337 -0.889953 -37.928981 8.494700 -53.682830 -0.000000 0.000000 0.000000 -2.738672 3.867201 57.102699 -1.221532 -0.868737 6.246114 0.000000 0.000000 0.000000 -5.717187 1.637220 3.502202 0.452102 12.498047 1.679031 -3.115293 2.624876 12.850332 -13.562424 -4.112607 0.873714 -55.643233 -9.631983 -56.684406 1.288737 -32.447074 -0.195969 -2.121923 3.948608 10.002347 9.416598 35.975090 2.745505 -13.539905 46.360401 -68.015494 -111.511338 85.424211 -108.787461 0.000000 0.000000 -0.000000 -11.289594 -1.008157 -67.802358 1.977072 -1.968046 90.589336 -0.000000 -0.000000 0.000000 -5.120612 -4.162695 -41.848777 -2.620044 2.296750 110.015053 
